# xmcd CD database file
#
# Track frame offsets:
#	150
#	12549
#	28623
#	50353
#	68020
#	89219
#	103412
#	121387
#	137822
#	158928
#	177000
#	192451
#	219548
#	238448
#
# Disc length: 3380 seconds
#
# Revision: 1
# Processed by: cddbd v1.5.2PL0 Copyright (c) Steve Scherf et al.
# Submitted via: CDex 1.70beta2
#
DISCID=d50d320e
DTITLE=OCEANLANE - Crossroad
DYEAR=2009
DGENRE=emo
TTITLE0=Standing On My Side
TTITLE1=Shine On Me
TTITLE2=I'll Be Around
TTITLE3=I May Be
TTITLE4=Lights Up My Soul
TTITLE5=Enemy
TTITLE6=When Did I Say I Had Enough?
TTITLE7=Malibu Coke
TTITLE8=Look Inside The Mirror
TTITLE9=Promise
TTITLE10=Foxwood Valley
TTITLE11=Where Do We Go?
TTITLE12=Ghost of A Man
TTITLE13=Love Won't Last The Night
EXTD=YEAR: 2009
EXTT0=
EXTT1=
EXTT2=
EXTT3=
EXTT4=
EXTT5=
EXTT6=
EXTT7=
EXTT8=
EXTT9=
EXTT10=
EXTT11=
EXTT12=
EXTT13=
PLAYORDER=
